<?xml version="1.0" encoding="UTF-8" standalone="no" ?>
<!DOCTYPE svg PUBLIC "-//W3C//DTD SVG 1.1//EN" "http://www.w3.org/Graphics/SVG/1.1/DTD/svg11.dtd">
<svg xmlns="http://www.w3.org/2000/svg" xmlns:xlink="http://www.w3.org/1999/xlink" version="1.1" width="1080" height="1080" viewBox="0 0 1080 1080" xml:space="preserve">
<desc>Created with Fabric.js 5.2.4</desc>
<defs>
</defs>
<g transform="matrix(1 0 0 1 540 540)" id="a0b0d304-3baf-4bf9-bd00-9cd44d279719"  >
</g>
<g transform="matrix(1 0 0 1 540 540)" id="27e01bed-6cb2-48f7-83fe-6e179a4c9966"  >
<rect style="stroke: none; stroke-width: 1; stroke-dasharray: none; stroke-linecap: butt; stroke-dashoffset: 0; stroke-linejoin: miter; stroke-miterlimit: 4; fill: rgb(255,255,255); fill-rule: nonzero; opacity: 1;" vector-effect="non-scaling-stroke"  x="-540" y="-540" rx="0" ry="0" width="1080" height="1080" />
</g>
<g transform="matrix(2.27 0 0 2.27 539.4 540.6)"  >
<g style="" vector-effect="non-scaling-stroke"   >
		<g transform="matrix(0.01 0 0 -0.01 0 0)"  >
<path style="stroke: none; stroke-width: 1; stroke-dasharray: none; stroke-linecap: butt; stroke-dashoffset: 0; stroke-linejoin: miter; stroke-miterlimit: 4; fill: rgb(0,165,233); fill-rule: nonzero; opacity: 1;" vector-effect="non-scaling-stroke"  transform=" translate(-5049.94, -5497.86)" d="M 4852 7790 C 4388 7741 3963 7566 3605 7277 C 3373 7089 3116 6771 2981 6502 C 2910 6362 2821 6113 2791 5975 C 2750 5781 2745 5735 2745 5465 C 2745 5147 2758 5056 2840 4808 C 2944 4492 3095 4236 3335 3967 C 3627 3640 4042 3388 4475 3275 C 4838 3180 5242 3175 5590 3261 C 6214 3416 6744 3812 7057 4360 C 7145 4514 7166 4558 7220 4705 C 7274 4851 7310 4985 7337 5135 C 7361 5275 7361 5677 7336 5838 C 7305 6046 7216 6311 7108 6523 C 7041 6653 6901 6861 6797 6985 C 6438 7411 5939 7689 5385 7771 C 5234 7793 4972 7803 4852 7790 z M 5325 7545 C 5427 7530 5602 7490 5675 7465 C 5789 7426 5886 7387 5951 7355 C 6502 7077 6907 6575 7061 5982 C 7092 5860 7120 5695 7120 5623 C 7120 5574 7102 5540 7009 5415 C 6892 5258 6749 5133 6571 5031 C 6462 4968 6439 4966 6518 5025 C 6551 5050 6617 5111 6664 5161 C 6829 5334 6868 5407 6837 5482 C 6819 5524 6769 5560 6727 5560 C 6681 5560 6643 5533 6599 5469 C 6539 5380 6386 5229 6298 5172 C 5994 4975 5564 4946 5247 5100 C 5025 5208 4869 5394 4826 5602 C 4806 5699 4806 5751 4826 5848 C 4870 6066 5030 6228 5231 6262 C 5414 6292 5622 6176 5711 5994 C 5742 5931 5745 5917 5750 5801 C 5753 5727 5760 5666 5768 5653 C 5784 5624 5830 5600 5869 5600 C 5908 5600 5965 5649 5980 5696 C 5997 5746 5994 5914 5976 5983 C 5919 6193 5741 6384 5524 6466 C 5267 6563 4911 6530 4612 6381 C 4397 6274 4279 6188 4125 6028 C 3863 5755 3726 5456 3705 5112 C 3700 5036 3694 4997 3685 4994 C 3673 4989 3673 4979 3685 4860 C 3701 4701 3777 4494 3873 4347 C 3940 4244 3942 4242 3998 4185 C 4022 4162 4042 4133 4043 4122 C 4044 4105 4047 4103 4058 4113 C 4070 4122 4071 4118 4067 4087 C 4064 4066 4066 4053 4071 4056 C 4076 4059 4078 4065 4075 4070 C 4072 4075 4074 4081 4080 4085 C 4085 4088 4090 4083 4090 4073 C 4090 4058 4092 4057 4100 4070 C 4108 4082 4110 4082 4116 4067 C 4119 4057 4120 4047 4117 4044 C 4114 4041 4118 4027 4126 4012 C 4134 3996 4136 3984 4130 3982 C 4110 3975 4121 3962 4143 3966 C 4165 3971 4165 3971 4142 3960 C 4116 3949 4122 3926 4149 3935 C 4160 3938 4167 3935 4167 3928 C 4167 3919 4150 3915 4111 3915 C 4041 3916 4019 3927 4045 3947 C 4056 3954 4059 3960 4054 3960 C 4048 3960 4038 3954 4031 3948 C 4021 3937 4016 3938 4007 3950 C 4000 3958 3986 3970 3975 3977 C 3964 3983 3956 3993 3957 3999 C 3959 4005 3954 4007 3947 4005 C 3933 3999 3806 4118 3738 4200 C 3677 4274 3591 4407 3543 4505 L 3503 4585 L 3496 4745 C 3490 4894 3506 5228 3519 5240 C 3522 5243 3526 5269 3526 5298 C 3528 5345 3553 5480 3568 5520 C 3575 5539 3574 5538 3583 5583 C 3594 5634 3622 5719 3660 5815 C 3712 5946 3846 6188 3873 6199 C 3877 6201 3885 6213 3891 6227 C 3896 6240 3904 6248 3910 6245 C 3915 6242 3920 6246 3920 6254 C 3920 6263 3932 6285 3948 6302 C 4040 6410 4129 6499 4141 6496 C 4144 6496 4154 6503 4164 6513 C 4174 6522 4187 6530 4193 6530 C 4200 6530 4199 6526 4190 6520 C 4178 6512 4180 6510 4198 6510 C 4211 6510 4218 6514 4215 6520 C 4212 6526 4217 6530 4227 6530 C 4238 6530 4252 6536 4259 6543 C 4270 6553 4272 6551 4267 6532 C 4263 6513 4267 6516 4296 6547 C 4320 6573 4330 6579 4330 6567 C 4330 6547 4334 6546 4362 6561 C 4381 6571 4380 6573 4348 6597 C 4330 6611 4323 6620 4332 6617 C 4344 6613 4350 6618 4353 6633 C 4357 6652 4357 6651 4359 6628 C 4359 6613 4364 6598 4370 6595 C 4376 6592 4377 6596 4374 6604 C 4371 6613 4373 6620 4379 6620 C 4390 6620 4394 6605 4390 6585 C 4389 6580 4392 6579 4397 6583 C 4401 6588 4405 6597 4405 6603 C 4405 6608 4411 6615 4419 6618 C 4428 6621 4430 6618 4425 6610 C 4419 6600 4423 6598 4441 6603 C 4463 6608 4462 6606 4432 6582 C 4392 6549 4390 6534 4429 6558 C 4569 6642 4692 6697 4850 6745 C 4858 6748 4903 6763 4950 6779 C 4997 6795 5071 6813 5115 6819 C 5237 6835 5350 6840 5350 6829 C 5350 6824 5365 6820 5383 6820 C 5431 6820 5492 6800 5592 6751 C 5690 6702 5720 6702 5769 6750 C 5808 6790 5815 6833 5790 6884 C 5769 6929 5741 6949 5633 6996 C 5441 7081 5286 7113 5065 7113 C 4881 7113 4764 7094 4581 7034 C 4329 6952 4105 6814 3907 6621 C 3659 6378 3496 6112 3376 5748 C 3324 5590 3282 5410 3260 5245 C 3244 5125 3237 4763 3248 4615 C 3253 4544 3256 4484 3255 4482 C 3250 4476 3170 4622 3141 4689 C 3102 4779 3035 4988 3016 5080 C 2929 5504 2999 6023 3193 6395 C 3501 6983 4002 7380 4610 7514 C 4674 7528 4757 7544 4795 7549 C 4909 7563 5214 7561 5325 7545 z M 4245 6550 C 4248 6545 4246 6540 4241 6540 C 4235 6540 4230 6545 4230 6550 C 4230 6556 4232 6560 4234 6560 C 4237 6560 4242 6556 4245 6550 z M 4566 5913 C 4545 5847 4535 5780 4547 5780 C 4553 5780 4558 5748 4559 5709 C 4565 5471 4665 5260 4860 5076 C 5073 4876 5377 4759 5693 4757 C 5757 4757 5810 4753 5810 4748 C 5810 4744 5828 4740 5851 4740 C 5880 4740 5889 4737 5884 4728 C 5879 4719 5882 4719 5893 4729 C 5905 4739 5910 4739 5910 4731 C 5910 4723 5918 4721 5931 4725 C 5945 4730 5950 4728 5946 4722 C 5943 4716 5944 4709 5950 4705 C 5955 4702 5960 4703 5960 4707 C 5960 4712 5968 4716 5978 4716 C 6002 4717 6024 4724 6030 4732 C 6033 4736 6048 4741 6063 4744 C 6079 4747 6112 4759 6136 4771 C 6209 4806 6196 4787 6112 4737 C 5898 4610 5644 4552 5347 4563 C 5193 4568 5098 4583 4980 4622 C 4844 4666 4673 4768 4568 4867 C 4498 4935 4480 4920 4547 4849 C 4573 4821 4594 4794 4593 4789 C 4591 4784 4597 4780 4606 4780 C 4614 4780 4619 4776 4616 4771 C 4612 4766 4616 4759 4622 4756 C 4629 4752 4625 4752 4612 4754 C 4600 4756 4592 4754 4596 4749 C 4599 4744 4611 4740 4623 4740 C 4641 4740 4642 4738 4630 4730 C 4618 4722 4618 4720 4635 4719 C 4646 4719 4649 4716 4643 4713 C 4628 4708 4625 4680 4639 4680 C 4644 4680 4651 4686 4654 4693 C 4658 4699 4658 4695 4656 4682 C 4654 4669 4658 4656 4668 4649 C 4681 4641 4681 4640 4670 4643 C 4662 4645 4646 4644 4635 4639 C 4617 4632 4617 4631 4633 4631 C 4647 4630 4650 4625 4645 4609 C 4641 4597 4637 4582 4636 4576 C 4635 4570 4631 4560 4627 4553 C 4622 4545 4639 4531 4678 4511 C 4711 4494 4740 4484 4744 4487 C 4747 4491 4750 4489 4750 4483 C 4750 4462 4956 4387 5100 4356 C 5194 4335 5350 4323 5460 4327 C 5875 4341 6251 4483 6623 4764 C 6735 4848 6757 4867 6837 4943 L 6879 4984 L 6869 4944 C 6851 4877 6779 4743 6724 4674 C 6518 4415 6070 4176 5708 4130 C 5602 4117 5359 4117 5250 4130 C 4955 4166 4701 4246 4503 4366 C 4384 4438 4277 4523 4148 4648 C 4025 4768 4004 4802 3984 4910 C 3971 4986 3973 5142 3987 5178 C 3995 5196 3998 5215 3995 5220 C 3992 5225 3995 5240 4002 5252 C 4009 5265 4013 5279 4012 5284 C 4010 5288 4018 5307 4029 5326 C 4042 5347 4045 5360 4038 5360 C 4031 5360 4034 5366 4045 5373 C 4055 5381 4060 5392 4056 5398 C 4053 5404 4054 5411 4060 5415 C 4065 5418 4070 5430 4070 5441 C 4070 5451 4074 5460 4078 5460 C 4082 5460 4091 5481 4098 5508 C 4114 5567 4159 5662 4177 5673 C 4184 5677 4190 5686 4190 5691 C 4190 5697 4197 5708 4205 5717 C 4213 5725 4218 5736 4214 5741 C 4211 5746 4212 5750 4217 5749 C 4239 5745 4252 5751 4247 5764 C 4243 5773 4250 5780 4267 5785 C 4287 5790 4291 5796 4287 5816 C 4284 5836 4285 5838 4297 5829 C 4308 5820 4314 5820 4323 5830 C 4332 5840 4332 5841 4323 5836 C 4316 5832 4310 5833 4310 5838 C 4310 5852 4350 5860 4351 5847 C 4351 5839 4353 5839 4357 5848 C 4359 5854 4372 5860 4385 5860 C 4398 5860 4411 5864 4415 5869 C 4418 5874 4434 5881 4451 5885 C 4467 5889 4501 5910 4527 5931 C 4552 5953 4575 5969 4577 5966 C 4580 5963 4575 5940 4566 5913 z M 4680 4580 C 4680 4569 4673 4560 4665 4560 C 4657 4560 4650 4556 4650 4550 C 4650 4545 4645 4540 4640 4540 C 4634 4540 4635 4548 4642 4559 C 4649 4570 4658 4576 4664 4573 C 4669 4569 4671 4574 4667 4583 C 4664 4593 4665 4600 4670 4600 C 4676 4600 4680 4591 4680 4580 z M 4715 4550 C 4718 4545 4714 4540 4705 4540 C 4696 4540 4692 4545 4695 4550 C 4698 4556 4703 4560 4705 4560 C 4707 4560 4712 4556 4715 4550 z M 4675 4540 C 4678 4535 4676 4530 4671 4530 C 4665 4530 4660 4535 4660 4540 C 4660 4546 4662 4550 4664 4550 C 4667 4550 4672 4546 4675 4540 z" stroke-linecap="round" />
</g>
		<g transform="matrix(0.01 0 0 -0.01 -9.49 15.24)"  >
<path style="stroke: none; stroke-width: 1; stroke-dasharray: none; stroke-linecap: butt; stroke-dashoffset: 0; stroke-linejoin: miter; stroke-miterlimit: 4; fill: rgb(0,165,233); fill-rule: nonzero; opacity: 1;" vector-effect="non-scaling-stroke"  transform=" translate(-4077.68, -3937.54)" d="M 4073 3940 C 4041 3927 4044 3923 4080 3928 C 4096 3930 4107 3936 4104 3941 C 4101 3946 4098 3950 4097 3949 C 4096 3949 4085 3945 4073 3940 z" stroke-linecap="round" />
</g>
		<g transform="matrix(0.01 0 0 -0.01 -5.62 5.2)"  >
<path style="stroke: none; stroke-width: 1; stroke-dasharray: none; stroke-linecap: butt; stroke-dashoffset: 0; stroke-linejoin: miter; stroke-miterlimit: 4; fill: rgb(0,165,233); fill-rule: nonzero; opacity: 1;" vector-effect="non-scaling-stroke"  transform=" translate(-4474.45, -4965)" d="M 4466 4965 C 4470 4957 4477 4950 4482 4950 C 4488 4950 4487 4956 4480 4965 C 4473 4973 4466 4980 4464 4980 C 4462 4980 4463 4973 4466 4965 z" stroke-linecap="round" />
</g>
		<g transform="matrix(0.01 0 0 -0.01 6.98 7.43)"  >
<path style="stroke: none; stroke-width: 1; stroke-dasharray: none; stroke-linecap: butt; stroke-dashoffset: 0; stroke-linejoin: miter; stroke-miterlimit: 4; fill: rgb(0,165,233); fill-rule: nonzero; opacity: 1;" vector-effect="non-scaling-stroke"  transform=" translate(-5765.13, -4737.2)" d="M 5757 4736 C 5753 4726 5756 4723 5765 4727 C 5773 4730 5777 4736 5774 4741 C 5767 4753 5763 4752 5757 4736 z" stroke-linecap="round" />
</g>
		<g transform="matrix(0.01 0 0 -0.01 -4.66 7.67)"  >
<path style="stroke: none; stroke-width: 1; stroke-dasharray: none; stroke-linecap: butt; stroke-dashoffset: 0; stroke-linejoin: miter; stroke-miterlimit: 4; fill: rgb(0,165,233); fill-rule: nonzero; opacity: 1;" vector-effect="non-scaling-stroke"  transform=" translate(-4573, -4712.31)" d="M 4560 4716 C 4560 4714 4567 4709 4576 4706 C 4584 4703 4588 4704 4585 4710 C 4579 4720 4560 4724 4560 4716 z" stroke-linecap="round" />
</g>
		<g transform="matrix(0.01 0 0 -0.01 -4.29 7.81)"  >
<path style="stroke: none; stroke-width: 1; stroke-dasharray: none; stroke-linecap: butt; stroke-dashoffset: 0; stroke-linejoin: miter; stroke-miterlimit: 4; fill: rgb(0,165,233); fill-rule: nonzero; opacity: 1;" vector-effect="non-scaling-stroke"  transform=" translate(-4610.59, -4698.18)" d="M 4603 4698 C 4601 4682 4604 4680 4613 4689 C 4620 4696 4621 4703 4614 4710 C 4608 4716 4604 4712 4603 4698 z" stroke-linecap="round" />
</g>
		<g transform="matrix(0.01 0 0 -0.01 -4.1 8.18)"  >
<path style="stroke: none; stroke-width: 1; stroke-dasharray: none; stroke-linecap: butt; stroke-dashoffset: 0; stroke-linejoin: miter; stroke-miterlimit: 4; fill: rgb(0,165,233); fill-rule: nonzero; opacity: 1;" vector-effect="non-scaling-stroke"  transform=" translate(-4630, -4660)" d="M 4615 4660 C 4618 4655 4628 4650 4636 4650 C 4644 4650 4648 4655 4645 4660 C 4642 4666 4632 4670 4624 4670 C 4616 4670 4612 4666 4615 4660 z" stroke-linecap="round" />
</g>
		<g transform="matrix(0.01 0 0 -0.01 -4.49 8.33)"  >
<path style="stroke: none; stroke-width: 1; stroke-dasharray: none; stroke-linecap: butt; stroke-dashoffset: 0; stroke-linejoin: miter; stroke-miterlimit: 4; fill: rgb(0,165,233); fill-rule: nonzero; opacity: 1;" vector-effect="non-scaling-stroke"  transform=" translate(-4590.18, -4644.75)" d="M 4578 4643 C 4584 4641 4596 4641 4603 4643 C 4609 4646 4604 4648 4590 4648 C 4576 4648 4571 4646 4578 4643 z" stroke-linecap="round" />
</g>
		<g transform="matrix(0.01 0 0 -0.01 -4.85 8.48)"  >
<path style="stroke: none; stroke-width: 1; stroke-dasharray: none; stroke-linecap: butt; stroke-dashoffset: 0; stroke-linejoin: miter; stroke-miterlimit: 4; fill: rgb(0,165,233); fill-rule: nonzero; opacity: 1;" vector-effect="non-scaling-stroke"  transform=" translate(-4553.52, -4629.28)" d="M 4547 4629 C 4554 4622 4562 4619 4565 4622 C 4568 4625 4563 4631 4553 4634 C 4539 4640 4538 4639 4547 4629 z" stroke-linecap="round" />
</g>
		<g transform="matrix(0.01 0 0 -0.01 -4.26 8.72)"  >
<path style="stroke: none; stroke-width: 1; stroke-dasharray: none; stroke-linecap: butt; stroke-dashoffset: 0; stroke-linejoin: miter; stroke-miterlimit: 4; fill: rgb(0,165,233); fill-rule: nonzero; opacity: 1;" vector-effect="non-scaling-stroke"  transform=" translate(-4613.69, -4604.81)" d="M 4603 4613 C 4596 4611 4590 4604 4590 4599 C 4590 4585 4616 4589 4630 4605 C 4640 4617 4640 4620 4629 4619 C 4621 4619 4609 4616 4603 4613 z" stroke-linecap="round" />
</g>
</g>
</g>
</svg>